<?xml version="1.0" encoding="UTF-8" standalone="no"?>
<svg
   version="1.1"
   width="8.2677in"
   height="11.6929in"
   viewBox="0 0 595.2756 841.8898"
   id="svg5"
   sodipodi:docname="GPN (Gerbang Pembayaran Nasional).cdr"
   xmlns:inkscape="http://www.inkscape.org/namespaces/inkscape"
   xmlns:sodipodi="http://sodipodi.sourceforge.net/DTD/sodipodi-0.dtd"
   xmlns="http://www.w3.org/2000/svg"
   xmlns:svg="http://www.w3.org/2000/svg">
  <defs
     id="defs5" />
  <sodipodi:namedview
     id="namedview5"
     pagecolor="#ffffff"
     bordercolor="#000000"
     borderopacity="0.25"
     inkscape:showpageshadow="2"
     inkscape:pageopacity="0.0"
     inkscape:pagecheckerboard="0"
     inkscape:deskcolor="#d1d1d1"
     inkscape:document-units="in" />
  <path
     d="  M373.8947,537.7782 L373.8947,653.0075 C373.8947,669.9013 388.9496,669.1351 404.3111,667.6028 C405.0006,667.5645 405.1156,667.4112 405.1156,666.8366 C405.1156,666.4918 405.8434,590.6428 405.8434,588.7656 C410.2489,592.9796 443.9978,641.7834 451.0466,651.4369 C464.4926,669.7481 459.9339,667.9859 487.8602,667.9859 C492.7254,667.9859 492.9170,666.6451 492.9170,661.9331 L492.9170,546.7038 C492.9170,542.4898 491.9975,539.3489 490.4269,537.0886 C485.1403,529.6188 471.3495,531.3423 463.9946,531.9553 C463.0752,532.0319 461.8110,532.7981 461.7344,533.7558 C461.7344,542.4515 461.8110,602.0584 461.7344,614.9681 C459.7806,613.4740 454.5327,606.6171 452.8088,604.1271 C437.7156,582.3684 421.9327,558.9622 405.9970,538.3911 C399.2551,529.6954 393.6237,531.6875 378.9901,531.6875 C374.0100,531.6875 373.9334,532.8751 373.9334,537.7403 L373.9334,537.7403 L373.8947,537.7782 Z"
     style="fill-rule: evenodd; fill: #003662; "
     id="path1" />
  <path
     d="  M274.2949,666.1087 L274.2949,665.9555 L274.9462,626.1538 L313.1389,625.7707 C348.8032,626.1921 365.6204,581.4103 348.1903,551.5307 C341.6782,540.3449 330.4154,545.5928 310.0359,549.9983 C299.8844,552.2202 292.7973,551.7605 292.8739,556.8552 C301.3398,559.7667 309.1548,554.8248 316.9311,562.2184 C322.2560,567.2752 324.8223,576.8137 322.2560,586.3905 C317.2375,604.9315 294.0615,600.4877 274.9462,600.4877 C274.9462,550.8028 279.9646,556.2806 256.8265,560.9925 C237.8258,564.8234 243.1124,564.4020 243.1124,611.8267 C243.1124,625.6175 242.6527,640.1745 243.1124,653.8503 C243.6104,670.1695 257.4395,667.9092 271.6133,667.9092 C271.6516,667.9092 271.7666,667.9092 271.8432,667.9092 C273.8736,667.9476 274.2949,667.6028 274.2949,666.0321 L274.2949,666.1087 Z"
     style="fill-rule: evenodd; fill: #003662; "
     id="path2" />
  <path
     d="  M138.6857,577.1201 L139.7584,575.2047 C143.0912,565.0916 158.8358,557.8129 168.2977,552.1053 C173.5076,548.9257 197.5265,535.3647 200.1315,532.3004 C170.6345,525.9029 143.8957,530.0785 124.6655,545.0952 C108.6528,557.6218 99.3059,586.0078 103.2134,615.3898 C106.8527,642.5883 122.5972,659.7119 145.7732,666.6454 C167.2254,673.0430 208.8659,670.3614 223.6144,657.5283 L224.0358,620.0252 C224.0358,608.1116 226.2577,593.5163 214.4590,590.6048 C201.7791,587.4635 178.2583,599.9901 163.4715,605.4683 C159.5257,606.9240 158.9128,606.3494 159.2192,611.1763 L196.6074,611.7892 L196.6458,631.6707 C196.7990,641.3241 196.4542,639.9833 186.2262,641.7455 C174.1593,643.8142 160.1003,643.1246 150.5235,637.7231 C133.8213,628.3378 130.0674,598.9175 138.6099,577.1971 L138.6099,577.1971 L138.6857,577.1201 Z"
     style="fill-rule: evenodd; fill: #003662; "
     id="path3" />
  <path
     d="  M425.7632,439.1745 L439.7455,441.0899 C439.0177,441.7795 439.6306,442.7372 434.3440,443.3885 C431.3559,443.7715 430.6664,443.6183 427.7936,443.1969 L425.7632,439.1745 Z Z M200.1694,532.2617 L200.1694,532.2617 C197.5644,535.3264 173.5456,548.8874 168.3356,552.0666 C158.8737,557.8129 143.1292,565.0912 139.7963,575.1660 L139.2600,576.1237 L140.3326,575.8173 C146.3088,574.7829 163.7002,566.8151 170.4426,563.9419 C180.4791,559.6897 194.8062,551.7601 201.6251,555.5910 C197.4495,561.4906 167.1101,567.3131 167.2250,580.6059 C176.0739,579.5332 313.6369,536.4370 327.2744,532.4533 C340.9886,528.4309 353.4769,524.9068 364.7776,518.1645 C372.4389,513.6057 415.2670,479.2439 423.2352,473.0379 C428.8283,468.6324 431.2797,465.8362 440.6270,464.4954 C449.6675,463.1929 456.5248,464.0357 458.4019,455.3400 C451.6216,458.2898 450.2425,459.2475 444.3813,454.7654 C446.3733,451.2410 451.3148,449.8236 456.4482,450.5514 C464.8757,451.7007 463.2667,455.2634 467.3275,457.7914 C469.1663,439.2503 450.7785,441.1658 447.7908,439.4419 C445.7221,438.2160 444.1131,434.9215 440.9722,432.8915 C435.5323,429.4054 426.1854,431.0526 419.2136,431.2442 C410.2497,431.4740 403.3158,429.8651 395.0415,429.7502 C396.1908,433.8492 398.4127,434.6154 400.6729,438.6374 C398.0296,440.2847 396.7654,440.0548 392.7434,440.7061 C389.9085,441.1658 386.7289,441.7787 384.7372,442.6215 C383.9710,448.0997 392.4752,452.5814 388.5681,460.6646 C385.6949,458.9407 303.1422,353.0200 297.2810,345.3586 C291.9561,338.4251 287.1678,332.8320 281.8812,325.8981 C267.1327,306.6292 256.0236,298.6231 239.6661,282.3805 C236.5248,279.2775 234.1497,276.1745 230.9704,273.2251 L177.9909,221.7014 C171.7849,215.7635 166.2688,210.6688 160.1394,204.7310 L134.0902,178.9882 C130.6424,175.6554 126.6587,170.4075 124.5517,172.3612 C122.2149,176.5369 123.0960,199.5980 124.8965,205.1141 C128.0378,214.7675 135.1246,219.6327 140.6793,225.1105 C152.8228,236.9858 164.2768,248.0183 176.3820,259.9703 C193.1225,276.4810 212.2378,296.2859 229.4381,312.2985 C233.4988,316.0528 244.3398,324.5953 242.1562,334.7084 C239.1298,333.7124 197.5276,292.2251 190.6324,285.9046 L146.1571,242.0039 C143.6287,239.6670 142.2496,236.7173 137.9977,236.6789 C135.8141,240.4332 136.6186,261.6172 137.8828,266.3675 C140.3346,275.7144 146.4636,280.0433 151.4054,284.9468 L215.5707,347.6181 C221.2404,353.0579 225.4923,357.0800 231.1236,363.3243 C235.6058,368.3044 243.8035,372.6329 242.3094,384.1252 C237.5208,382.9759 224.9559,368.0742 219.7080,363.1327 L162.8593,308.3527 C150.2944,295.9794 150.2944,294.4853 150.2944,311.8388 C150.2944,327.1620 150.2178,330.4565 161.8633,342.4085 C180.3661,361.4092 197.5659,376.8469 218.7120,398.0696 C231.6983,411.1325 242.4627,416.9171 242.5776,431.0523 C238.4402,429.7115 191.9732,383.1295 184.8861,376.5404 C177.9909,370.1812 169.8312,359.1869 164.7365,358.9188 C162.2081,363.3243 160.4076,385.5043 172.8959,397.4562 C188.5254,412.4346 206.7597,431.5116 222.5042,446.0685 C226.8331,450.0910 230.6253,453.7299 234.8009,457.8673 C238.8616,461.8897 242.8071,466.5247 242.4623,475.4889 C238.1334,474.6461 230.8934,465.4524 226.3347,461.0086 C220.8182,455.6453 215.9151,451.0870 210.2837,445.8004 L186.9161,422.7393 C184.1579,420.1726 181.7444,415.9590 177.3776,416.5332 C175.0408,427.7190 176.7647,441.9695 183.0473,448.9034 C186.2269,452.4661 189.5215,455.1860 192.9689,458.5951 L222.6191,487.9006 C231.5830,496.4430 232.9238,499.7376 240.9303,503.5685 C243.9567,505.0242 242.3094,503.4535 243.9184,505.6754 L200.1326,532.3376 L200.1694,532.2617 Z"
     style="fill-rule: evenodd; fill: #f22f3d; "
     id="path4" />
  <path
     d="  M384.3143,345.9336 L383.4715,344.8610 C379.5257,338.5017 365.6583,289.0083 361.0999,285.4077 C356.5795,287.3231 350.7953,302.7229 350.1823,307.2812 C347.5390,327.1244 378.3768,373.1704 365.5821,384.2413 L355.3157,357.7707 C353.2853,351.9860 348.4588,334.2882 345.0493,331.6448 C341.5249,332.7558 332.4844,349.8028 334.0168,360.9120 C334.7446,366.0837 342.3294,387.5358 344.9344,391.3667 C349.9528,398.7599 357.0396,407.1495 362.5944,413.9298 L375.9637,430.9002 C378.0324,433.5818 378.3006,435.1141 381.7100,435.7654 L415.3057,367.8076 C419.8261,356.9666 416.6465,349.6496 413.2753,339.9578 L387.1495,264.2620 C384.5445,256.7922 381.4415,245.8742 378.3772,239.3621 C373.7418,240.0900 374.4314,241.9288 370.4860,249.7051 C368.3407,253.9190 366.3486,257.6346 366.0805,263.5342 C365.6591,272.3448 379.3349,307.7030 382.9742,318.5057 C385.5026,325.9755 391.7083,339.0001 384.3150,345.9723 L384.3143,345.9336 Z"
     style="fill-rule: evenodd; fill: #f22f3d; "
     id="path5" />
</svg>
