<svg xmlns="http://www.w3.org/2000/svg" width="43" height="21" fill="none"><rect width="19.758" height="18.69" x="12.213" y="1.135" fill="#CBD1D8" stroke="#B4BBC7" stroke-width="1.068" rx="6.141"/><path fill="#CBD1D8" stroke="#B4BBC7" stroke-width=".934" d="M18.234 4.525c.823 0 1.435.617 1.435 1.312 0 .694-.612 1.311-1.435 1.311-.824 0-1.437-.617-1.437-1.311 0-.695.613-1.312 1.437-1.312Z"/><mask id="a" fill="#fff"><path d="M20.453 12.1c5.2-7.283 11.835-1.016 12.046 1.785a6.673 6.673 0 0 1-6.67 6.474h-7.475a6.673 6.673 0 0 1-6.67-6.471c.105-2.723 3.44-6.551 8.769-1.788Z"/></mask><path fill="#CBD1D8" d="M20.453 12.1c5.2-7.283 11.835-1.016 12.046 1.785a6.673 6.673 0 0 1-6.67 6.474h-7.475a6.673 6.673 0 0 1-6.67-6.471c.105-2.723 3.44-6.551 8.769-1.788Z"/><path fill="#B4BBC7" d="m20.453 12.1-.712.796.889.794.692-.97-.87-.62Zm12.046 1.785 1.067.032.002-.056-.004-.056-1.065.08Zm-20.815.003-1.067-.041-.001.036v.037l1.068-.032Zm8.769-1.788.869.62c1.195-1.673 2.4-2.47 3.475-2.782 1.075-.311 2.142-.171 3.127.253.995.43 1.877 1.138 2.519 1.898.667.79.962 1.497.99 1.876l1.066-.08 1.065-.08c-.077-1.022-.69-2.149-1.49-3.094-.823-.976-1.964-1.904-3.304-2.481-1.35-.582-2.93-.818-4.568-.344-1.638.475-3.213 1.625-4.618 3.593l.869.62Zm12.046 1.785-1.068-.032a5.605 5.605 0 0 1-5.601 5.438v2.136a7.74 7.74 0 0 0 7.736-7.51l-1.067-.032Zm-6.67 6.474V19.29h-7.475v2.136h7.476v-1.068Zm-7.475 0V19.29a5.605 5.605 0 0 1-5.602-5.435l-1.068.032-1.067.032a7.741 7.741 0 0 0 7.737 7.507v-1.068Zm-6.67-6.471 1.068.041c.039-1.022.71-2.265 1.807-2.774.984-.456 2.7-.478 5.182 1.741l.712-.796.712-.796c-2.847-2.545-5.463-3.034-7.505-2.086-1.93.895-2.978 2.928-3.043 4.629l1.067.04Z" mask="url(#a)"/><path fill="#B4BBC7" d="M7.028.199c.52.16.926.69.738 1.343l-.062.214a.802.802 0 0 0 .024.516c.109.153.258.279.44.356l.05.021c.997.421.735 1.902-.346 1.955a1.021 1.021 0 0 1-.446-.08 1.032 1.032 0 0 0-1.083.184l-.22.263c-.326.391-.792.454-1.179.305l-.05-.02-.051-.023a1.019 1.019 0 0 1-.604-1.057l.036-.343a1.03 1.03 0 0 0-.623-.901 1.02 1.02 0 0 1-.368-.265c-.716-.812.162-2.032 1.16-1.611l.05.021c.182.077.375.095.56.066A.801.801 0 0 0 5.442.8l.11-.193c.337-.59 1-.67 1.476-.41ZM3.57 12.69c.68-.242 1.531.003 1.848.848l.104.276c.087.231.248.417.448.538.233.073.486.086.735.025l.071-.017c1.396-.34 2.289 1.444 1.178 2.356-.156.129-.34.22-.537.269a1.37 1.37 0 0 0-1.005 1.022l-.027.484c-.04.704-.524 1.15-1.085 1.277-.557.147-1.193-.026-1.553-.633L3.5 18.72a1.37 1.37 0 0 0-1.362-.444 1.353 1.353 0 0 1-.601.01C.13 17.987.099 15.992 1.494 15.65l.072-.018c.248-.06.467-.189.64-.36.121-.2.18-.44.15-.685l-.036-.293c-.108-.896.534-1.505 1.25-1.605ZM39.542 5.978c.665.08 1.27.637 1.184 1.469l-.028.27a.988.988 0 0 0 .15.633c.163.157.368.272.599.324l.066.015c1.299.293 1.302 2.142.005 2.44a1.26 1.26 0 0 1-.558.002 1.271 1.271 0 0 0-1.253.429l-.224.394c-.324.568-.911.74-1.43.613-.521-.109-.977-.516-1.025-1.167l-.034-.453a1.271 1.271 0 0 0-.947-.926 1.256 1.256 0 0 1-.502-.24c-1.044-.828-.245-2.496 1.053-2.202l.066.014c.231.053.465.037.679-.034a.987.987 0 0 0 .409-.507l.09-.257c.28-.787 1.066-1.03 1.7-.817Z"/></svg>